<svg width="117" height="607" viewBox="0 0 117 607" fill="none" xmlns="http://www.w3.org/2000/svg">
<path fill-rule="evenodd" clip-rule="evenodd" d="M284.914 -358.488C378.816 -418.839 500.328 -335.147 606.445 -300.44C695.841 -271.202 781.671 -237.371 850.687 -173.445C922.505 -106.923 976.461 -25.526 1004.51 68.2671C1036.23 174.339 1064.83 290.816 1019.74 391.899C973.65 495.226 876.3 581.001 765.538 603.99C662.06 625.466 576.585 522.577 472.273 505.525C367.351 488.373 251.989 560.47 161.155 505.189C65.3803 446.901 -6.1279 330.625 1.04142 218.736C8.06001 109.198 147.437 61.9165 195.868 -36.5613C246.231 -138.969 188.927 -296.797 284.914 -358.488Z" fill="#FFCB47"/>
</svg>
